<svg width="19" height="20" viewBox="0 0 19 20" fill="none" xmlns="http://www.w3.org/2000/svg">
<path d="M14.3201 15.2204C13.3011 16.1564 12.0317 16.7755 10.6667 17.0021C9.30181 17.2287 7.90044 17.0529 6.63373 16.4963C5.36701 15.9397 4.28976 15.0263 3.5335 13.8677C2.77724 12.709 2.37469 11.3553 2.375 9.97167H3.5625C3.56241 11.1676 3.92348 12.3357 4.59841 13.323C5.27334 14.3102 6.23067 15.0707 7.34505 15.5047C8.45944 15.9388 9.67892 16.0262 10.8438 15.7555C12.0087 15.4849 13.0647 14.8687 13.8736 13.9878H12.1481C11.9907 13.9878 11.8396 13.9252 11.7283 13.8139C11.6169 13.7025 11.5544 13.5515 11.5544 13.394C11.5544 13.2366 11.6169 13.0856 11.7283 12.9742C11.8396 12.8629 11.9907 12.8003 12.1481 12.8003H14.9138C15.0713 12.8003 15.2223 12.8629 15.3337 12.9742C15.445 13.0856 15.5076 13.2366 15.5076 13.394V16.1574C15.5076 16.3148 15.445 16.4659 15.3337 16.5772C15.2223 16.6886 15.0713 16.7511 14.9138 16.7511C14.7563 16.7511 14.6053 16.6886 14.494 16.5772C14.3826 16.4659 14.3201 16.3148 14.3201 16.1574V15.2192V15.2204ZM5.12644 5.95674H6.85188C7.00935 5.95674 7.16037 6.01929 7.27172 6.13064C7.38307 6.24199 7.44562 6.39301 7.44562 6.55049C7.44562 6.70796 7.38307 6.85898 7.27172 6.97033C7.16037 7.08168 7.00935 7.14424 6.85188 7.14424H4.085C3.92753 7.14424 3.77651 7.08168 3.66516 6.97033C3.55381 6.85898 3.49125 6.70796 3.49125 6.55049V3.7848C3.49125 3.62733 3.55381 3.4763 3.66516 3.36495C3.77651 3.2536 3.92753 3.19105 4.085 3.19105C4.24247 3.19105 4.3935 3.2536 4.50484 3.36495C4.61619 3.4763 4.67875 3.62733 4.67875 3.7848V4.72292C5.69757 3.78575 6.96733 3.16566 8.33286 2.93844C9.69838 2.71122 11.1005 2.8867 12.3679 3.44344C13.6353 4.00019 14.7131 4.91407 15.4696 6.07343C16.226 7.23278 16.6283 8.58737 16.6274 9.97167H15.4399C15.44 8.77559 15.0788 7.60735 14.4038 6.61998C13.7287 5.63262 12.7711 4.87215 11.6566 4.4382C10.542 4.00425 9.32229 3.91705 8.1573 4.18801C6.99231 4.45897 5.93631 5.07546 5.12762 5.95674H5.12644Z" fill="#FF8787"/>
</svg>
