<svg width="70" height="70" viewBox="0 0 70 70" fill="none" xmlns="http://www.w3.org/2000/svg">
<path d="M14.1767 59.2633C21.7614 59.2633 27.91 53.0553 27.91 45.3973C27.91 37.7393 21.7614 31.5312 14.1767 31.5312C6.59198 31.5312 0.443359 37.7393 0.443359 45.3973C0.443359 53.0553 6.59198 59.2633 14.1767 59.2633Z" fill="#FF8787"/>
<path d="M53.8756 60.9963C53.8756 64.9678 50.6908 68.1626 46.7923 68.1626C42.8939 68.1626 39.709 64.9678 39.709 60.9963C39.709 57.0249 42.8939 53.8301 46.7923 53.8301C50.6908 53.8301 53.8756 57.0249 53.8756 60.9963Z" stroke="#FF8787" stroke-width="3"/>
<path d="M67.6121 21.1311C67.6121 31.8033 59.0472 40.4301 48.5121 40.4301C37.977 40.4301 29.4121 31.8033 29.4121 21.1311C29.4121 10.4589 37.977 1.83203 48.5121 1.83203C59.0472 1.83203 67.6121 10.4589 67.6121 21.1311Z" stroke="#FF8787" stroke-width="3"/>
</svg>
