<svg width="53" height="52" viewBox="0 0 53 52" fill="none" xmlns="http://www.w3.org/2000/svg">
<path d="M38.2773 34.5L35.7773 34L34.7773 33C37.7582 29.5325 39.944 24.7929 39.944 19.8958C39.944 8.97625 31.0928 0.125 20.1732 0.125C9.25359 0.125 0.402344 8.97625 0.402344 19.8958C0.402344 30.8154 9.25359 39.6667 20.1732 39.6667C25.0703 39.6667 29.8098 37.4808 33.2773 34.5L34.2773 35.5L34.7773 37.5L49.7773 52L52.7773 49L38.2773 34.5ZM20.2773 36C12.7036 36 4.27734 27.4696 4.27734 19.8958C4.27734 12.3221 12.5994 4 20.1732 4C27.7469 4 36.0203 12.3221 36.0203 19.8958C36.0203 27.4696 27.8511 36 20.2773 36Z" fill="#FF8787"/>
</svg>
