<svg width="63" height="63" viewBox="0 0 63 63" fill="none" xmlns="http://www.w3.org/2000/svg">
<path d="M4.11068 36.4583H59.444C60.5177 36.4583 61.4023 37.343 61.4023 38.4167V59.1667C61.4023 60.2403 60.5177 61.125 59.444 61.125H4.11068C3.03702 61.125 2.15234 60.2403 2.15234 59.1667V38.4167C2.15234 37.343 3.03702 36.4583 4.11068 36.4583ZM6.06901 48.7917C6.06901 53.4243 9.85308 57.2083 14.4857 57.2083C19.1183 57.2083 22.9023 53.4243 22.9023 48.7917C22.9023 44.1591 19.1183 40.375 14.4857 40.375C9.85308 40.375 6.06901 44.1591 6.06901 48.7917ZM4.11068 1.875H59.444C60.5177 1.875 61.4023 2.75968 61.4023 3.83333V24.5833C61.4023 25.657 60.5177 26.5417 59.444 26.5417H4.11068C3.03702 26.5417 2.15234 25.657 2.15234 24.5833V3.83333C2.15234 2.75968 3.03702 1.875 4.11068 1.875ZM6.06901 14.2083C6.06901 18.8409 9.85308 22.625 14.4857 22.625C19.1183 22.625 22.9023 18.8409 22.9023 14.2083C22.9023 9.57574 19.1183 5.79167 14.4857 5.79167C9.85308 5.79167 6.06901 9.57574 6.06901 14.2083Z" stroke="#FF8787" stroke-width="3"/>
</svg>
