<svg width="30" height="25" viewBox="0 0 30 25" fill="none" xmlns="http://www.w3.org/2000/svg">
<path d="M6.38441 9.60295C3.365 10.3209 1.11914 13.0359 1.11914 16.2747C1.11914 20.0622 4.18929 23.1323 7.97674 23.1323C8.62615 23.1323 9.255 23.0418 9.85092 22.8731M23.1012 9.60295C26.1206 10.3209 28.3657 13.0359 28.3657 16.2747C28.3657 20.0622 25.2956 23.1323 21.5082 23.1323C20.8587 23.1323 20.2299 23.0418 19.6347 22.8731M23.0635 9.41711C23.0635 4.87258 19.3789 1.18799 14.8343 1.18799C10.2898 1.18799 6.60522 4.87258 6.60522 9.41711M14.8343 21.7608V15.2375M10.0786 14.8216L14.8343 10.0507L19.7252 14.9032L14.9019 14.8624L10.0786 14.8216Z" stroke="#505050" stroke-width="2" stroke-linecap="round" stroke-linejoin="round"/>
</svg>
