<svg width="23" height="27" viewBox="0 0 23 27" fill="none" xmlns="http://www.w3.org/2000/svg">
<path d="M21.6492 3.56745H19.9578V1.39284C19.9578 0.99114 19.6347 0.667969 19.233 0.667969H1.3528C0.951101 0.667969 0.62793 0.99114 0.62793 1.39284V9.60805C0.62793 10.0097 0.951101 10.3329 1.3528 10.3329H19.233C19.6347 10.3329 19.9578 10.0097 19.9578 9.60805V5.50044H20.9243V11.541H10.3231C9.6556 11.541 9.11496 12.0817 9.11496 12.7492V16.8568H7.78603C7.65314 16.8568 7.54441 16.9655 7.54441 17.0984V23.9847C7.54441 24.0028 7.54743 24.0239 7.55045 24.042C7.54743 24.1024 7.54441 24.1659 7.54441 24.2263C7.54441 25.6277 8.68004 26.7633 10.0815 26.7633C11.4829 26.7633 12.6185 25.6277 12.6185 24.2263C12.6185 24.1629 12.6155 24.1024 12.6125 24.042C12.6155 24.0239 12.6185 24.0058 12.6185 23.9847V17.0984C12.6185 16.9655 12.5098 16.8568 12.3769 16.8568H11.048V13.474H21.6492C22.3167 13.474 22.8573 12.9334 22.8573 12.2659V4.77557C22.8573 4.10809 22.3167 3.56745 21.6492 3.56745ZM18.0248 8.39993H2.56092V2.60096H18.0248V8.39993ZM10.6855 24.2263C10.6855 24.5585 10.4137 24.8303 10.0815 24.8303C9.74922 24.8303 9.4774 24.5585 9.4774 24.2263V18.7897H10.6855V24.2263Z" fill="#505050"/>
</svg>
