<svg width="22" height="22" viewBox="0 0 22 22" fill="none" xmlns="http://www.w3.org/2000/svg">
<path fill-rule="evenodd" clip-rule="evenodd" d="M0.569336 11.04C0.569336 8.27365 1.66828 5.62057 3.62441 3.66445C5.58054 1.70832 8.23362 0.609375 11 0.609375C13.7664 0.609375 16.4195 1.70832 18.3756 3.66445C20.3317 5.62057 21.4307 8.27365 21.4307 11.04C21.4307 13.8064 20.3317 16.4595 18.3756 18.4156C16.4195 20.3718 13.7664 21.4707 11 21.4707C8.23362 21.4707 5.58054 20.3718 3.62441 18.4156C1.66828 16.4595 0.569336 13.8064 0.569336 11.04ZM11 2.10554C8.63042 2.10554 6.3579 3.04685 4.68236 4.7224C3.00682 6.39794 2.06551 8.67046 2.06551 11.04C2.06551 13.4096 3.00682 15.6821 4.68236 17.3577C6.3579 19.0332 8.63042 19.9745 11 19.9745C13.3696 19.9745 15.6421 19.0332 17.3176 17.3577C18.9932 15.6821 19.9345 13.4096 19.9345 11.04C19.9345 8.67046 18.9932 6.39794 17.3176 4.7224C15.6421 3.04685 13.3696 2.10554 11 2.10554ZM14.7074 7.33426C14.855 7.48193 14.9379 7.68219 14.9379 7.891C14.9379 8.0998 14.855 8.30006 14.7074 8.44773L12.1135 11.04L14.7074 13.6323C14.8552 13.7802 14.9383 13.9808 14.9383 14.1899C14.9383 14.399 14.8552 14.5995 14.7074 14.7474C14.5595 14.8953 14.3589 14.9783 14.1498 14.9783C13.9407 14.9783 13.7402 14.8953 13.5923 14.7474L11 12.1535L8.40769 14.7474C8.33448 14.8206 8.24756 14.8787 8.1519 14.9183C8.05624 14.9579 7.95371 14.9783 7.85017 14.9783C7.74663 14.9783 7.6441 14.9579 7.54844 14.9183C7.45278 14.8787 7.36586 14.8206 7.29265 14.7474C7.21943 14.6742 7.16136 14.5873 7.12173 14.4916C7.08211 14.3959 7.06172 14.2934 7.06172 14.1899C7.06172 14.0863 7.08211 13.9838 7.12173 13.8881C7.16136 13.7925 7.21943 13.7056 7.29265 13.6323L9.88654 11.04L7.29265 8.44773C7.14479 8.29987 7.06172 8.09932 7.06172 7.89021C7.06172 7.6811 7.14479 7.48055 7.29265 7.33269C7.44051 7.18482 7.64106 7.10176 7.85017 7.10176C8.05928 7.10176 8.25983 7.18482 8.40769 7.33269L11 9.92657L13.5923 7.33269C13.6655 7.25936 13.7524 7.20117 13.848 7.16148C13.9437 7.12178 14.0463 7.10134 14.1498 7.10134C14.2534 7.10134 14.356 7.12178 14.4516 7.16148C14.5473 7.20117 14.6342 7.25936 14.7074 7.33269V7.33426Z" fill="black"/>
</svg>
