<svg width="203" height="239" viewBox="0 0 203 239" fill="none" xmlns="http://www.w3.org/2000/svg">
<path d="M191.462 27.3249H176.086V7.55633C176.086 3.90463 173.148 0.966797 169.496 0.966797H6.95476C3.30307 0.966797 0.365234 3.90463 0.365234 7.55633V82.2377C0.365234 85.8894 3.30307 88.8272 6.95476 88.8272H169.496C173.148 88.8272 176.086 85.8894 176.086 82.2377V44.897H184.872V99.8097H88.5002C82.4323 99.8097 77.5176 104.724 77.5176 110.792V148.133H65.4368C64.2288 148.133 63.2403 149.121 63.2403 150.329V212.93C63.2403 213.095 63.2678 213.287 63.2952 213.452C63.2678 214.001 63.2403 214.577 63.2403 215.127C63.2403 227.866 73.5639 238.19 86.3037 238.19C99.0434 238.19 109.367 227.866 109.367 215.127C109.367 214.55 109.34 214.001 109.312 213.452C109.34 213.287 109.367 213.122 109.367 212.93V150.329C109.367 149.121 108.379 148.133 107.171 148.133H95.0897V117.382H191.462C197.529 117.382 202.444 112.467 202.444 106.399V38.3075C202.444 32.2396 197.529 27.3249 191.462 27.3249ZM158.514 71.2551H17.9373V18.5389H158.514V71.2551ZM91.7949 215.127C91.7949 218.147 89.3239 220.618 86.3037 220.618C83.2835 220.618 80.8124 218.147 80.8124 215.127V165.705H91.7949V215.127Z" fill="white"/>
</svg>
