<svg width="368" height="367" viewBox="0 0 368 367" fill="none" xmlns="http://www.w3.org/2000/svg">
<path d="M328.238 93.0696L190.613 31.903C188.656 31.0333 186.539 30.584 184.397 30.584C182.256 30.584 180.138 31.0333 178.181 31.903L40.5562 93.0696C40.2504 93.2073 40.0363 93.4366 39.7305 93.6048C39.3023 93.8189 38.8436 93.9566 38.446 94.2165C38.1096 94.4459 37.8496 94.7364 37.5285 94.9811C36.4107 95.8118 35.4303 96.8128 34.6231 97.9477C34.3172 98.3758 33.9961 98.7581 33.7209 99.1863C33.2657 99.9945 32.8771 100.838 32.5587 101.709C32.4211 102.122 32.207 102.505 32.0847 102.917C31.7006 104.261 31.5 105.649 31.4883 107.046V259.963C31.4883 266.018 35.0359 271.478 40.5715 273.939L178.197 335.106C180.184 335.993 182.295 336.421 184.405 336.421C186.534 336.367 188.628 335.867 190.552 334.953L190.613 335.106L328.238 273.939C330.943 272.74 333.242 270.78 334.854 268.299C336.467 265.818 337.324 262.922 337.322 259.963V107.046C337.324 104.087 336.467 101.191 334.854 98.7099C333.242 96.2287 330.943 94.2693 328.238 93.0696ZM184.405 62.6239L284.382 107.046L184.405 151.468L164.403 142.584L84.4433 107.046L184.405 62.6239ZM199.697 297.596V178.152L306.738 130.58V250.039L199.697 297.596Z" fill="white"/>
</svg>
