<svg width="271" height="223" viewBox="0 0 271 223" fill="none" xmlns="http://www.w3.org/2000/svg">
<path d="M58.1129 87.9315C30.1907 94.5712 9.42188 119.678 9.42188 149.629C9.42188 184.654 37.8134 213.046 72.8382 213.046C78.8438 213.046 84.659 212.209 90.1699 210.648M212.703 87.9315C240.625 94.5712 261.388 119.678 261.388 149.629C261.388 184.654 232.996 213.046 197.971 213.046C191.966 213.046 186.151 212.209 180.646 210.648M212.354 86.2129C212.354 44.1869 178.281 10.1133 136.255 10.1133C94.2286 10.1133 60.155 44.1869 60.155 86.2129M136.255 200.362V140.038M92.2753 136.191L136.255 92.0726L181.483 136.946L136.879 136.569L92.2753 136.191Z" stroke="white" stroke-width="18.4952" stroke-linecap="round" stroke-linejoin="round"/>
</svg>
