<svg width="62" height="55" viewBox="0 0 62 55" fill="none" xmlns="http://www.w3.org/2000/svg">
<rect y="0.470703" width="62" height="54" rx="9.88738" fill="#FF8787"/>
<path d="M42.7432 23.3751L31.4747 16.8018C31.3311 16.718 31.1678 16.6738 31.0015 16.6738C30.8351 16.6738 30.6718 16.718 30.5282 16.8018L19.2597 23.3751C19.1179 23.4578 19.0003 23.5763 18.9186 23.7186C18.8369 23.861 18.7939 24.0223 18.7939 24.1864V37.333C18.7939 37.4971 18.8369 37.6584 18.9186 37.8008C19.0003 37.9431 19.1179 38.0616 19.2597 38.1443L30.5282 44.7176C30.6718 44.8014 30.8351 44.8456 31.0015 44.8456C31.1678 44.8456 31.3311 44.8014 31.4747 44.7176L42.7432 38.1443C42.885 38.0616 43.0026 37.9431 43.0843 37.8008C43.166 37.6584 43.209 37.4971 43.209 37.333V24.1864C43.209 24.0223 43.166 23.861 43.0843 23.7186C43.0026 23.5763 42.885 23.4578 42.7432 23.3751V23.3751ZM41.3309 36.794L31.0015 42.8188L20.672 36.794V24.7254L31.0015 18.7006L41.3309 24.7254V36.794Z" fill="white" stroke="white" stroke-width="0.939039"/>
<path d="M54.0078 16.7989L42.7394 10.2256C42.5957 10.1418 42.4324 10.0977 42.2661 10.0977C42.0998 10.0977 41.9365 10.1418 41.7928 10.2256L30.5244 16.7989C30.3826 16.8816 30.265 17.0001 30.1832 17.1425C30.1015 17.2848 30.0585 17.4461 30.0586 17.6102V30.7568C30.0585 30.9209 30.1015 31.0822 30.1832 31.2246C30.265 31.3669 30.3826 31.4854 30.5244 31.5681L41.7928 38.1414C41.9365 38.2252 42.0998 38.2694 42.2661 38.2694C42.4324 38.2694 42.5957 38.2252 42.7394 38.1414L54.0078 31.5681C54.1496 31.4854 54.2672 31.3669 54.349 31.2246C54.4307 31.0822 54.4737 30.9209 54.4736 30.7568V17.6102C54.4737 17.4461 54.4307 17.2848 54.349 17.1425C54.2672 17.0001 54.1496 16.8816 54.0078 16.7989V16.7989ZM52.5955 30.2178L42.2661 36.2427L31.9367 30.2178V18.1493L42.2661 12.1244L52.5955 18.1493V30.2178Z" fill="white" stroke="white" stroke-width="0.939039"/>
<path d="M31.4746 16.7989L20.2062 10.2256C20.0625 10.1418 19.8992 10.0977 19.7329 10.0977C19.5666 10.0977 19.4033 10.1418 19.2596 10.2256L7.99115 16.7989C7.84938 16.8816 7.73177 17.0001 7.65005 17.1425C7.56832 17.2848 7.52534 17.4461 7.52539 17.6102V30.7568C7.52534 30.9209 7.56832 31.0822 7.65005 31.2246C7.73177 31.3669 7.84938 31.4854 7.99115 31.5681L19.2596 38.1414C19.4033 38.2252 19.5666 38.2694 19.7329 38.2694C19.8992 38.2694 20.0625 38.2252 20.2062 38.1414L31.4746 31.5681C31.6164 31.4854 31.734 31.3669 31.8157 31.2246C31.8975 31.0822 31.9405 30.9209 31.9404 30.7568V17.6102C31.9405 17.4461 31.8975 17.2848 31.8157 17.1425C31.734 17.0001 31.6164 16.8816 31.4746 16.7989ZM30.0623 30.2178L24.8976 33.2302L19.7329 36.2427L9.40347 30.2178V18.1493L19.7329 12.1244L30.0623 18.1493V30.2178Z" fill="white" stroke="white" stroke-width="0.939039"/>
</svg>
