<svg xmlns="http://www.w3.org/2000/svg" viewBox="0 0 377.83 338.07"><defs><style>.cls-1{fill:#fff;}</style></defs><g id="Calque_2" data-name="Calque 2"><g id="Calque_1-2" data-name="Calque 1"><path class="cls-1" d="M190.54,1C239,1,287.52,2.29,336,2.34c11.5,0,23,.34,34.48.44,2.81,0,5.48.25,6.74,3.17,1.34,3.1.37,5.72-1.87,8.2Q316.13,79.55,257,145.07c-2,2.18-3.08,2.16-5,0Q231.63,121.72,211,98.61c-1.88-2.11-1.83-3.44.11-5.36,2.61-2.56,5-5.39,7.4-8.12,1.94-2.18,2.61-4.62,1.34-7.37s-3.55-3.22-6.22-3.23q-23.25-.15-46.48-.39c-3.06,0-6.1-.17-7.73,3.21s.06,6,2.26,8.5q31,35.3,62,70.65l148,168.75a26.44,26.44,0,0,1,2.55,3.07c3.05,4.79.56,9.68-5.12,9.72-12.5.09-25,0-37.49-.1q-76.23-.56-152.46-1.17-68.73-.51-137.46-1c-11-.08-22-.33-33-.47-3.17,0-6.55.44-8.12-3.33s.39-6.32,2.74-8.92q55-60.76,110-121.59c2.57-2.85,5.23-5.61,7.69-8.55,1.64-2,2.75-2.25,4.63-.1q20.58,23.51,41.38,46.82c1.68,1.88,1.82,3.16,0,5-2.71,2.7-5.19,5.64-7.75,8.49a6.38,6.38,0,0,0-1.33,7c1,2.72,3.35,3.47,6,3.49q24,.17,48,.4c2.87,0,5.39-.5,6.61-3.4s.19-5.44-1.85-7.76q-21.3-24.19-42.52-48.48L6.39,13.05c-.65-.75-1.28-1.53-1.94-2.28A6.68,6.68,0,0,1,3,3.37C4.21.39,6.75,0,9.6,0c19.49.12,39,.13,58.49.28,24.82.19,49.64.55,74.46.72,16,.12,32,0,48,0Z"/></g></g></svg>