<svg width="186" height="52" viewBox="0 0 186 52" fill="none" xmlns="http://www.w3.org/2000/svg">
<rect width="67.8472" height="51.9088" rx="9.88738" fill="#FF8787"/>
<path d="M45.0629 22.0686L34.3723 15.8324C34.236 15.7528 34.0811 15.7109 33.9233 15.7109C33.7655 15.7109 33.6106 15.7528 33.4743 15.8324L22.7837 22.0686C22.6492 22.147 22.5376 22.2594 22.4601 22.3945C22.3825 22.5295 22.3418 22.6825 22.3418 22.8383V35.3107C22.3418 35.4664 22.3825 35.6194 22.4601 35.7545C22.5376 35.8895 22.6492 36.0019 22.7837 36.0804L33.4743 42.3166C33.6106 42.3961 33.7655 42.438 33.9233 42.438C34.0811 42.438 34.236 42.3961 34.3723 42.3166L45.0629 36.0804C45.1974 36.0019 45.309 35.8895 45.3865 35.7545C45.4641 35.6194 45.5048 35.4664 45.5048 35.3107V22.8383C45.5048 22.6825 45.4641 22.5295 45.3865 22.3945C45.309 22.2594 45.1974 22.147 45.0629 22.0686ZM43.723 34.7993L33.9233 40.5152L24.1236 34.7993V23.3496L33.9233 17.6337L43.723 23.3496V34.7993Z" fill="white" stroke="white" stroke-width="0.890884"/>
<path d="M55.7524 15.8303L45.0618 9.59408C44.9255 9.51456 44.7705 9.47266 44.6127 9.47266C44.455 9.47266 44.3 9.51456 44.1637 9.59408L33.4731 15.8303C33.3386 15.9088 33.227 16.0211 33.1495 16.1562C33.072 16.2912 33.0312 16.4443 33.0313 16.6V29.0724C33.0312 29.2281 33.072 29.3811 33.1495 29.5162C33.227 29.6512 33.3386 29.7636 33.4731 29.8421L44.1637 36.0783C44.3 36.1578 44.455 36.1997 44.6127 36.1997C44.7705 36.1997 44.9255 36.1578 45.0618 36.0783L55.7524 29.8421C55.8869 29.7636 55.9984 29.6512 56.076 29.5162C56.1535 29.3811 56.1943 29.2281 56.1942 29.0724V16.6C56.1943 16.4443 56.1535 16.2912 56.076 16.1562C55.9984 16.0211 55.8869 15.9088 55.7524 15.8303ZM54.4125 28.561L44.6127 34.2769L34.813 28.561V17.1114L44.6127 11.3954L54.4125 17.1114V28.561Z" fill="white" stroke="white" stroke-width="0.890884"/>
<path d="M34.3735 15.8303L23.6828 9.59408C23.5466 9.51456 23.3916 9.47266 23.2338 9.47266C23.0761 9.47266 22.9211 9.51456 22.7848 9.59408L12.0942 15.8303C11.9597 15.9088 11.8481 16.0211 11.7706 16.1562C11.6931 16.2912 11.6523 16.4443 11.6523 16.6V29.0724C11.6523 29.2281 11.6931 29.3811 11.7706 29.5162C11.8481 29.6512 11.9597 29.7636 12.0942 29.8421L22.7848 36.0783C22.9211 36.1578 23.0761 36.1997 23.2338 36.1997C23.3916 36.1997 23.5466 36.1578 23.6828 36.0783L34.3735 29.8421C34.508 29.7636 34.6195 29.6512 34.6971 29.5162C34.7746 29.3811 34.8154 29.2281 34.8153 29.0724V16.6C34.8154 16.4443 34.7746 16.2912 34.6971 16.1562C34.6195 16.0211 34.508 15.9088 34.3735 15.8303ZM33.0336 28.561L28.1337 31.419L23.2338 34.2769L13.4341 28.561V17.1114L23.2338 11.3954L33.0336 17.1114V28.561Z" fill="white" stroke="white" stroke-width="0.890884"/>
<path d="M97.0823 20.8487H102.454C102.376 16.2128 98.4931 13.0121 92.5909 13.0121C86.7792 13.0121 82.5207 16.162 82.5466 20.8868C82.5337 24.7225 85.2907 26.9198 89.7691 27.974L92.6556 28.6853C95.542 29.3711 97.147 30.184 97.1599 31.9367C97.147 33.8419 95.309 35.1374 92.4614 35.1374C89.5491 35.1374 87.4522 33.8165 87.271 31.2128H81.8477C81.99 36.8394 86.0932 39.7479 92.5261 39.7479C98.9979 39.7479 102.803 36.7123 102.816 31.9494C102.803 27.6184 99.4769 25.3195 94.8689 24.3034L92.4873 23.7445C90.1833 23.2238 88.2547 22.3855 88.2936 20.5185C88.2936 18.8419 89.808 17.6099 92.552 17.6099C95.2313 17.6099 96.8752 18.8038 97.0823 20.8487Z" fill="#FF8787"/>
<path d="M115.543 39.7606C120.462 39.7606 123.775 37.4109 124.552 33.7911L119.452 33.4609C118.896 34.9469 117.472 35.7217 115.634 35.7217C112.877 35.7217 111.129 33.9308 111.129 31.0223V31.0096H124.668V29.5235C124.668 22.8936 120.578 19.6167 115.323 19.6167C109.473 19.6167 105.68 23.6937 105.68 29.714C105.68 35.8995 109.421 39.7606 115.543 39.7606ZM111.129 27.6565C111.246 25.4338 112.967 23.6556 115.414 23.6556C117.808 23.6556 119.465 25.3322 119.478 27.6565H111.129Z" fill="#FF8787"/>
<path d="M133.781 13.3677H128.267V39.3796H133.781V13.3677Z" fill="#FF8787"/>
<path d="M148.889 19.8707H144.941V18.5625C144.941 17.2416 145.485 16.4668 147.103 16.4668C147.763 16.4668 148.436 16.6065 148.876 16.7462L149.847 12.6819C149.161 12.4787 147.646 12.1484 145.951 12.1484C142.21 12.1484 139.427 14.2187 139.427 18.4609V19.8707H136.619V23.9351H139.427V39.3796H144.941V23.9351H148.889V19.8707Z" fill="#FF8787"/>
<path d="M160.606 39.7606C165.525 39.7606 168.838 37.4109 169.615 33.7911L164.515 33.4609C163.959 34.9469 162.535 35.7217 160.697 35.7217C157.94 35.7217 156.193 33.9308 156.193 31.0223V31.0096H169.732V29.5235C169.732 22.8936 165.641 19.6167 160.386 19.6167C154.536 19.6167 150.743 23.6937 150.743 29.714C150.743 35.8995 154.484 39.7606 160.606 39.7606ZM156.193 27.6565C156.309 25.4338 158.031 23.6556 160.477 23.6556C162.871 23.6556 164.528 25.3322 164.541 27.6565H156.193Z" fill="#FF8787"/>
<path d="M173.33 39.3796H178.844V28.3423C178.844 25.9418 180.63 24.2907 183.063 24.2907C183.827 24.2907 184.876 24.4177 185.393 24.5828V19.7818C184.901 19.6675 184.215 19.5913 183.659 19.5913C181.433 19.5913 179.608 20.8614 178.883 23.2746H178.676V19.8707H173.33V39.3796Z" fill="#FF8787"/>
</svg>
