<svg width="42" height="42" viewBox="0 0 42 42" fill="none" xmlns="http://www.w3.org/2000/svg">
<g clip-path="url(#clip0_1031_2736)">
<rect width="42" height="42" rx="4" fill="white"/>
<path d="M6.784 4.632C7.2 4.632 7.584 4.776 7.888 4.984L8.448 3.48C8 3.16 7.328 3.016 6.64 3.016C4.656 3.016 3.584 4.184 3.584 5.976V6.52H2.176V8.12H3.584V15H5.584V8.12H7.872V6.52H5.52V6.008C5.52 5.096 5.952 4.632 6.784 4.632ZM12.0533 15.112C14.7093 15.112 16.6133 13.288 16.6133 10.728C16.6133 8.168 14.7093 6.36 12.0533 6.36C9.42925 6.36 7.50925 8.168 7.50925 10.728C7.50925 13.288 9.42925 15.112 12.0533 15.112ZM12.0533 13.4C10.6133 13.4 9.52525 12.36 9.52525 10.728C9.52525 9.096 10.6133 8.056 12.0533 8.056C13.5093 8.056 14.5973 9.096 14.5973 10.728C14.5973 12.36 13.5093 13.4 12.0533 13.4ZM25.0605 15L21.7165 10.632L24.9165 6.456H22.7565L20.6605 9.256L18.5645 6.456H16.3405L19.5245 10.664L16.1965 15H18.4045L20.6125 12.04L22.8045 15H25.0605Z" fill="#FF8787"/>
<path d="M21 26C21 23.2386 23.2386 21 26 21H43V43H21V26Z" fill="#FFECEC" stroke="black"/>
<line x1="3" y1="30.5" x2="17" y2="30.5" stroke="black"/>
</g>
<defs>
<clipPath id="clip0_1031_2736">
<rect width="42" height="42" rx="4" fill="white"/>
</clipPath>
</defs>
</svg>
