<svg width="42" height="42" viewBox="0 0 42 42" fill="none" xmlns="http://www.w3.org/2000/svg">
<g clip-path="url(#clip0_1031_2740)">
<path d="M5.20312 16H7.38281V9.14844H10.4297V7.54688H7.38281V7.08594C7.38281 6.83594 7.41406 6.61198 7.47656 6.41406C7.54427 6.21615 7.64583 6.04948 7.78125 5.91406C7.93229 5.7526 8.13542 5.63021 8.39062 5.54688C8.64583 5.46354 8.95573 5.42188 9.32031 5.42188C9.65885 5.42188 9.95312 5.4375 10.2031 5.46875C10.4531 5.5 10.6771 5.53646 10.875 5.57812L11.0156 3.875C10.8385 3.84375 10.6667 3.8151 10.5 3.78906C10.3385 3.76302 10.1771 3.73958 10.0156 3.71875C9.85417 3.69792 9.6875 3.68229 9.51562 3.67188C9.34896 3.65625 9.17448 3.64844 8.99219 3.64844C8.41406 3.64844 7.89062 3.72396 7.42188 3.875C6.95312 4.02083 6.55469 4.23958 6.22656 4.53125C5.89844 4.82292 5.64583 5.18229 5.46875 5.60938C5.29167 6.03646 5.20312 6.52865 5.20312 7.08594V7.54688H2.98438V9.14844H5.20312V16ZM11.5341 11.6953V11.8594C11.5341 12.4792 11.6226 13.0521 11.7997 13.5781C11.9768 14.099 12.2372 14.5521 12.5809 14.9375C12.9195 15.3229 13.3361 15.625 13.8309 15.8438C14.3309 16.0573 14.8986 16.1641 15.5341 16.1641C16.1643 16.1641 16.7268 16.0573 17.2216 15.8438C17.7164 15.625 18.133 15.3229 18.4716 14.9375C18.8101 14.5521 19.0679 14.099 19.245 13.5781C19.4221 13.0521 19.5106 12.4792 19.5106 11.8594V11.6953C19.5106 11.0807 19.4221 10.513 19.245 9.99219C19.0679 9.46615 18.8101 9.01042 18.4716 8.625C18.1278 8.23958 17.7085 7.9375 17.2137 7.71875C16.719 7.5 16.1539 7.39062 15.5184 7.39062C14.883 7.39062 14.3179 7.5 13.8231 7.71875C13.3335 7.9375 12.9195 8.23958 12.5809 8.625C12.2372 9.01042 11.9768 9.46615 11.7997 9.99219C11.6226 10.513 11.5341 11.0807 11.5341 11.6953ZM13.7059 11.8594V11.6953C13.7059 11.3516 13.7398 11.026 13.8075 10.7188C13.8752 10.4115 13.982 10.1406 14.1278 9.90625C14.2736 9.67188 14.4611 9.48698 14.6903 9.35156C14.9195 9.21615 15.1955 9.14844 15.5184 9.14844C15.8466 9.14844 16.1252 9.21615 16.3544 9.35156C16.5835 9.48698 16.771 9.67188 16.9169 9.90625C17.0575 10.1406 17.1617 10.4115 17.2294 10.7188C17.2971 11.026 17.3309 11.3516 17.3309 11.6953V11.8594C17.3309 12.2135 17.2971 12.5469 17.2294 12.8594C17.1617 13.1667 17.0575 13.4349 16.9169 13.6641C16.771 13.8984 16.5835 14.0833 16.3544 14.2188C16.1252 14.3542 15.8518 14.4219 15.5341 14.4219C15.2059 14.4219 14.9247 14.3542 14.6903 14.2188C14.4611 14.0833 14.2736 13.8984 14.1278 13.6641C13.982 13.4349 13.8752 13.1667 13.8075 12.8594C13.7398 12.5469 13.7059 12.2135 13.7059 11.8594ZM24.4275 10.1875L22.5994 7.54688H20.2634L23.0916 11.6953L20.1541 16H22.5056L24.4353 13.2344L26.3806 16H28.7244L25.7869 11.6953L28.6228 7.54688H26.2869L24.4275 10.1875Z" fill="#5F5BFF"/>
<path d="M21 21H43V43H21V21Z" fill="#CDDBFF" stroke="black"/>
<line x1="3" y1="30.5" x2="17" y2="30.5" stroke="black" stroke-dasharray="2 2"/>
</g>
<defs>
<clipPath id="clip0_1031_2740">
<rect width="42" height="42" rx="4" fill="white"/>
</clipPath>
</defs>
</svg>
