<svg width="42" height="42" viewBox="0 0 42 42" fill="none" xmlns="http://www.w3.org/2000/svg">
<g clip-path="url(#clip0_1031_2744)">
<path d="M6.00781 5.26562H8.07031V7.05469H6.00781V14H3.625V7.05469H2.3125V5.90625L3.625 5.26562V4.625C3.625 3.88021 3.75 3.30208 4 2.89062C4.25 2.47917 4.60677 2.1875 5.07031 2.01562C5.53385 1.84375 6.08073 1.75781 6.71094 1.75781C7.16927 1.75781 7.59115 1.79688 7.97656 1.875C8.36198 1.94792 8.67188 2.03125 8.90625 2.125L8.29688 3.875C8.11458 3.81771 7.91406 3.76562 7.69531 3.71875C7.47656 3.67188 7.23438 3.64844 6.96875 3.64844C6.63542 3.64844 6.39062 3.75 6.23438 3.95312C6.08333 4.15625 6.00781 4.41146 6.00781 4.71875V5.26562ZM16.4872 9.61719C16.4872 11.0651 16.107 12.1849 15.3466 12.9766C14.5861 13.763 13.5497 14.1562 12.2372 14.1562C11.4247 14.1562 10.7007 13.9792 10.0653 13.625C9.4299 13.2708 8.9299 12.7578 8.56531 12.0859C8.20594 11.4089 8.02625 10.5859 8.02625 9.61719C8.02625 8.16406 8.40385 7.04948 9.15906 6.27344C9.91948 5.49219 10.9611 5.10156 12.2841 5.10156C13.1018 5.10156 13.8257 5.27604 14.4559 5.625C15.0861 5.97396 15.5809 6.48698 15.9403 7.16406C16.3049 7.84115 16.4872 8.65885 16.4872 9.61719ZM10.4559 9.61719C10.4559 10.4818 10.5966 11.1354 10.8778 11.5781C11.1643 12.0208 11.6278 12.2422 12.2684 12.2422C12.8986 12.2422 13.3544 12.0208 13.6356 11.5781C13.9169 11.1354 14.0575 10.4818 14.0575 9.61719C14.0575 8.7526 13.9169 8.10417 13.6356 7.67188C13.3544 7.23958 12.8934 7.02344 12.2528 7.02344C11.6226 7.02344 11.1643 7.23958 10.8778 7.67188C10.5966 8.10417 10.4559 8.7526 10.4559 9.61719ZM19.115 14H16.4119L19.3728 9.53906L16.5525 5.26562H19.2634L20.9587 8.04688L22.6697 5.26562H25.3728L22.5212 9.53906L25.4978 14H22.7947L20.9587 11.0078L19.115 14Z" fill="black"/>
<path d="M21 23C21 21.8954 21.8954 21 23 21H43V43H21V23Z" fill="#BEDDC1" stroke="black"/>
<line x1="3" y1="30.5" x2="17" y2="30.5" stroke="black"/>
</g>
<defs>
<clipPath id="clip0_1031_2744">
<rect width="42" height="42" rx="4" fill="white"/>
</clipPath>
</defs>
</svg>
