<svg xmlns="http://www.w3.org/2000/svg" version="1.1" xmlns:xlink="http://www.w3.org/1999/xlink" xmlns:svgjs="http://svgjs.com/svgjs" width="62" height="54"><svg width="62" height="54" viewBox="0 0 62 54" fill="none" xmlns="http://www.w3.org/2000/svg">
<rect width="62" height="54" rx="9.88738" fill="#FF8787"></rect>
<path d="M42.7432 22.9044L31.4747 16.3311C31.3311 16.2473 31.1678 16.2031 31.0015 16.2031C30.8351 16.2031 30.6718 16.2473 30.5282 16.3311L19.2597 22.9044C19.1179 22.9871 19.0003 23.1056 18.9186 23.2479C18.8369 23.3903 18.7939 23.5516 18.7939 23.7157V36.8623C18.7939 37.0264 18.8369 37.1877 18.9186 37.3301C19.0003 37.4724 19.1179 37.5909 19.2597 37.6736L30.5282 44.2469C30.6718 44.3307 30.8351 44.3749 31.0015 44.3749C31.1678 44.3749 31.3311 44.3307 31.4747 44.2469L42.7432 37.6736C42.885 37.5909 43.0026 37.4724 43.0843 37.3301C43.166 37.1877 43.209 37.0264 43.209 36.8623V23.7157C43.209 23.5516 43.166 23.3903 43.0843 23.2479C43.0026 23.1056 42.885 22.9871 42.7432 22.9044V22.9044ZM41.3309 36.3233L31.0015 42.3481L20.672 36.3233V24.2547L31.0015 18.2298L41.3309 24.2547V36.3233Z" fill="white" stroke="white" stroke-width="0.939039"></path>
<path d="M54.0078 16.3282L42.7394 9.75494C42.5957 9.67112 42.4324 9.62695 42.2661 9.62695C42.0998 9.62695 41.9365 9.67112 41.7928 9.75494L30.5244 16.3282C30.3826 16.4109 30.265 16.5294 30.1832 16.6717C30.1015 16.8141 30.0585 16.9754 30.0586 17.1395V30.2861C30.0585 30.4502 30.1015 30.6115 30.1832 30.7539C30.265 30.8962 30.3826 31.0147 30.5244 31.0974L41.7928 37.6707C41.9365 37.7545 42.0998 37.7987 42.2661 37.7987C42.4324 37.7987 42.5957 37.7545 42.7394 37.6707L54.0078 31.0974C54.1496 31.0147 54.2672 30.8962 54.349 30.7539C54.4307 30.6115 54.4737 30.4502 54.4736 30.2861V17.1395C54.4737 16.9754 54.4307 16.8141 54.349 16.6717C54.2672 16.5294 54.1496 16.4109 54.0078 16.3282V16.3282ZM52.5955 29.7471L42.2661 35.772L31.9367 29.7471V17.6786L42.2661 11.6537L52.5955 17.6786V29.7471Z" fill="white" stroke="white" stroke-width="0.939039"></path>
<path d="M31.4746 16.3282L20.2062 9.75494C20.0625 9.67112 19.8992 9.62695 19.7329 9.62695C19.5666 9.62695 19.4033 9.67112 19.2596 9.75494L7.99115 16.3282C7.84938 16.4109 7.73177 16.5294 7.65005 16.6717C7.56832 16.8141 7.52534 16.9754 7.52539 17.1395V30.2861C7.52534 30.4502 7.56832 30.6115 7.65005 30.7539C7.73177 30.8962 7.84938 31.0147 7.99115 31.0974L19.2596 37.6707C19.4033 37.7545 19.5666 37.7987 19.7329 37.7987C19.8992 37.7987 20.0625 37.7545 20.2062 37.6707L31.4746 31.0974C31.6164 31.0147 31.734 30.8962 31.8157 30.7539C31.8975 30.6115 31.9405 30.4502 31.9404 30.2861V17.1395C31.9405 16.9754 31.8975 16.8141 31.8157 16.6717C31.734 16.5294 31.6164 16.4109 31.4746 16.3282ZM30.0623 29.7471L24.8976 32.7595L19.7329 35.772L9.40347 29.7471V17.6786L19.7329 11.6537L30.0623 17.6786V29.7471Z" fill="white" stroke="white" stroke-width="0.939039"></path>
</svg><style>@media (prefers-color-scheme: light) { :root { filter: none; } }
</style></svg>